<mxfile host="app.diagrams.net" modified="2023-04-24T08:24:16.096Z" agent="Mozilla/5.0 (Windows NT 10.0; Win64; x64) AppleWebKit/537.36 (KHTML, like Gecko) Chrome/112.0.0.0 Safari/537.36" etag="kj0IQKlqfEoBY5OiVXlK" version="21.2.1" type="device">
  <diagram id="-rAfPCR-WI5j5XnJL7HD" name="第 1 页">
    <mxGraphModel dx="2550" dy="730" grid="1" gridSize="10" guides="1" tooltips="1" connect="1" arrows="1" fold="1" page="1" pageScale="1" pageWidth="827" pageHeight="1169" math="0" shadow="0">
      <root>
        <mxCell id="0" />
        <mxCell id="1" parent="0" />
        <mxCell id="aR0nrnqsbivXCveqFRS2-44" value="" style="rounded=1;whiteSpace=wrap;html=1;" parent="1" vertex="1">
          <mxGeometry x="-250" y="510" width="1210" height="370" as="geometry" />
        </mxCell>
        <mxCell id="aR0nrnqsbivXCveqFRS2-18" style="edgeStyle=orthogonalEdgeStyle;rounded=0;orthogonalLoop=1;jettySize=auto;html=1;exitX=0.5;exitY=1;exitDx=0;exitDy=0;entryX=0.5;entryY=0;entryDx=0;entryDy=0;" parent="1" source="aR0nrnqsbivXCveqFRS2-3" target="aR0nrnqsbivXCveqFRS2-12" edge="1">
          <mxGeometry relative="1" as="geometry" />
        </mxCell>
        <mxCell id="aR0nrnqsbivXCveqFRS2-3" value="walle&lt;br&gt;（172.16.99.2）" style="rounded=0;whiteSpace=wrap;html=1;fillColor=#1ba1e2;strokeColor=#006EAF;fontColor=#ffffff;" parent="1" vertex="1">
          <mxGeometry x="285" y="100" width="120" height="60" as="geometry" />
        </mxCell>
        <mxCell id="aR0nrnqsbivXCveqFRS2-6" value="" style="endArrow=classic;html=1;rounded=0;entryX=0;entryY=0.5;entryDx=0;entryDy=0;exitX=0.5;exitY=0.5;exitDx=0;exitDy=0;exitPerimeter=0;" parent="1" source="aR0nrnqsbivXCveqFRS2-11" target="aR0nrnqsbivXCveqFRS2-3" edge="1">
          <mxGeometry width="50" height="50" relative="1" as="geometry">
            <mxPoint x="50" y="125" as="sourcePoint" />
            <mxPoint x="380" y="285" as="targetPoint" />
          </mxGeometry>
        </mxCell>
        <mxCell id="aR0nrnqsbivXCveqFRS2-11" value="Actor" style="shape=umlActor;verticalLabelPosition=bottom;verticalAlign=top;html=1;outlineConnect=0;" parent="1" vertex="1">
          <mxGeometry x="30" y="100" width="30" height="70" as="geometry" />
        </mxCell>
        <mxCell id="aR0nrnqsbivXCveqFRS2-12" value="" style="rounded=1;whiteSpace=wrap;html=1;" parent="1" vertex="1">
          <mxGeometry x="-250" y="240" width="1190" height="180" as="geometry" />
        </mxCell>
        <mxCell id="aR0nrnqsbivXCveqFRS2-45" style="edgeStyle=orthogonalEdgeStyle;rounded=0;orthogonalLoop=1;jettySize=auto;html=1;" parent="1" source="aR0nrnqsbivXCveqFRS2-14" target="aR0nrnqsbivXCveqFRS2-41" edge="1">
          <mxGeometry relative="1" as="geometry" />
        </mxCell>
        <mxCell id="aR0nrnqsbivXCveqFRS2-52" style="edgeStyle=orthogonalEdgeStyle;rounded=0;orthogonalLoop=1;jettySize=auto;html=1;" parent="1" source="aR0nrnqsbivXCveqFRS2-14" target="aR0nrnqsbivXCveqFRS2-51" edge="1">
          <mxGeometry relative="1" as="geometry">
            <Array as="points">
              <mxPoint x="-146" y="460" />
              <mxPoint x="188" y="460" />
            </Array>
          </mxGeometry>
        </mxCell>
        <mxCell id="aR0nrnqsbivXCveqFRS2-14" value="sherpa" style="rounded=0;whiteSpace=wrap;html=1;" parent="1" vertex="1">
          <mxGeometry x="-186" y="300" width="80" height="45" as="geometry" />
        </mxCell>
        <mxCell id="aR0nrnqsbivXCveqFRS2-46" style="edgeStyle=orthogonalEdgeStyle;rounded=0;orthogonalLoop=1;jettySize=auto;html=1;" parent="1" source="aR0nrnqsbivXCveqFRS2-19" target="aR0nrnqsbivXCveqFRS2-34" edge="1">
          <mxGeometry relative="1" as="geometry" />
        </mxCell>
        <mxCell id="aR0nrnqsbivXCveqFRS2-53" style="edgeStyle=orthogonalEdgeStyle;rounded=0;orthogonalLoop=1;jettySize=auto;html=1;entryX=0.5;entryY=0;entryDx=0;entryDy=0;" parent="1" source="aR0nrnqsbivXCveqFRS2-19" target="aR0nrnqsbivXCveqFRS2-51" edge="1">
          <mxGeometry relative="1" as="geometry">
            <Array as="points">
              <mxPoint x="188" y="322" />
            </Array>
          </mxGeometry>
        </mxCell>
        <mxCell id="aR0nrnqsbivXCveqFRS2-19" value="雨燕" style="rounded=0;whiteSpace=wrap;html=1;" parent="1" vertex="1">
          <mxGeometry x="24" y="300" width="80" height="45" as="geometry" />
        </mxCell>
        <mxCell id="aR0nrnqsbivXCveqFRS2-47" style="edgeStyle=orthogonalEdgeStyle;rounded=0;orthogonalLoop=1;jettySize=auto;html=1;" parent="1" source="aR0nrnqsbivXCveqFRS2-20" target="aR0nrnqsbivXCveqFRS2-40" edge="1">
          <mxGeometry relative="1" as="geometry" />
        </mxCell>
        <mxCell id="aR0nrnqsbivXCveqFRS2-20" value="client" style="rounded=0;whiteSpace=wrap;html=1;" parent="1" vertex="1">
          <mxGeometry x="500" y="300" width="80" height="45" as="geometry" />
        </mxCell>
        <mxCell id="aR0nrnqsbivXCveqFRS2-48" style="edgeStyle=orthogonalEdgeStyle;rounded=0;orthogonalLoop=1;jettySize=auto;html=1;" parent="1" source="aR0nrnqsbivXCveqFRS2-21" target="aR0nrnqsbivXCveqFRS2-40" edge="1">
          <mxGeometry relative="1" as="geometry" />
        </mxCell>
        <mxCell id="aR0nrnqsbivXCveqFRS2-21" value="client-预发布" style="rounded=0;whiteSpace=wrap;html=1;" parent="1" vertex="1">
          <mxGeometry x="690" y="300" width="80" height="45" as="geometry" />
        </mxCell>
        <mxCell id="aR0nrnqsbivXCveqFRS2-49" style="edgeStyle=orthogonalEdgeStyle;rounded=0;orthogonalLoop=1;jettySize=auto;html=1;" parent="1" source="aR0nrnqsbivXCveqFRS2-22" target="aR0nrnqsbivXCveqFRS2-28" edge="1">
          <mxGeometry relative="1" as="geometry" />
        </mxCell>
        <mxCell id="aR0nrnqsbivXCveqFRS2-55" style="edgeStyle=orthogonalEdgeStyle;rounded=0;orthogonalLoop=1;jettySize=auto;html=1;" parent="1" source="aR0nrnqsbivXCveqFRS2-22" edge="1">
          <mxGeometry relative="1" as="geometry">
            <mxPoint x="190" y="520" as="targetPoint" />
            <Array as="points">
              <mxPoint x="190" y="322" />
            </Array>
          </mxGeometry>
        </mxCell>
        <mxCell id="aR0nrnqsbivXCveqFRS2-22" value="百胜" style="rounded=0;whiteSpace=wrap;html=1;" parent="1" vertex="1">
          <mxGeometry x="298.75" y="300" width="80" height="45" as="geometry" />
        </mxCell>
        <mxCell id="aR0nrnqsbivXCveqFRS2-25" value="OPS" style="rounded=0;whiteSpace=wrap;html=1;" parent="1" vertex="1">
          <mxGeometry x="840" y="300" width="80" height="45" as="geometry" />
        </mxCell>
        <mxCell id="aR0nrnqsbivXCveqFRS2-26" value="空间" style="text;html=1;strokeColor=#A50040;fillColor=#d80073;align=center;verticalAlign=middle;whiteSpace=wrap;rounded=0;fontColor=#ffffff;" parent="1" vertex="1">
          <mxGeometry x="-380" y="307.5" width="60" height="30" as="geometry" />
        </mxCell>
        <mxCell id="aR0nrnqsbivXCveqFRS2-28" value="" style="rounded=1;whiteSpace=wrap;html=1;" parent="1" vertex="1">
          <mxGeometry x="230" y="600" width="217.5" height="270" as="geometry" />
        </mxCell>
        <mxCell id="aR0nrnqsbivXCveqFRS2-29" value="百胜ops：172.16.99.100" style="rounded=0;whiteSpace=wrap;html=1;" parent="1" vertex="1">
          <mxGeometry x="248.75" y="630" width="180" height="60" as="geometry" />
        </mxCell>
        <mxCell id="aR0nrnqsbivXCveqFRS2-30" value="百胜-website-1：172.16.99.100" style="rounded=0;whiteSpace=wrap;html=1;" parent="1" vertex="1">
          <mxGeometry x="248.75" y="710" width="180" height="60" as="geometry" />
        </mxCell>
        <mxCell id="aR0nrnqsbivXCveqFRS2-31" value="百胜-website-2：172.16.99.100" style="rounded=0;whiteSpace=wrap;html=1;" parent="1" vertex="1">
          <mxGeometry x="248.75" y="790" width="180" height="60" as="geometry" />
        </mxCell>
        <mxCell id="aR0nrnqsbivXCveqFRS2-33" value="" style="rounded=1;whiteSpace=wrap;html=1;" parent="1" vertex="1">
          <mxGeometry x="-44.75" y="600" width="217.5" height="215" as="geometry" />
        </mxCell>
        <mxCell id="aR0nrnqsbivXCveqFRS2-34" value="雨燕ops：10.8.0.1" style="rounded=0;whiteSpace=wrap;html=1;" parent="1" vertex="1">
          <mxGeometry x="-26" y="630" width="180" height="60" as="geometry" />
        </mxCell>
        <mxCell id="aR0nrnqsbivXCveqFRS2-35" value="雨燕-测试：172.16.99.2" style="rounded=0;whiteSpace=wrap;html=1;" parent="1" vertex="1">
          <mxGeometry x="-26" y="710" width="180" height="60" as="geometry" />
        </mxCell>
        <mxCell id="aR0nrnqsbivXCveqFRS2-40" value="website：10.6.0.141" style="rounded=0;whiteSpace=wrap;html=1;" parent="1" vertex="1">
          <mxGeometry x="556" y="600" width="152.5" height="60" as="geometry" />
        </mxCell>
        <mxCell id="aR0nrnqsbivXCveqFRS2-41" value="sherpa-ops：10.6.0.1" style="rounded=0;whiteSpace=wrap;html=1;" parent="1" vertex="1">
          <mxGeometry x="-222.25" y="625" width="152.5" height="60" as="geometry" />
        </mxCell>
        <mxCell id="aR0nrnqsbivXCveqFRS2-50" value="服务器管理" style="text;html=1;strokeColor=#A50040;fillColor=#d80073;align=center;verticalAlign=middle;whiteSpace=wrap;rounded=0;fontColor=#ffffff;" parent="1" vertex="1">
          <mxGeometry x="-380" y="660" width="70" height="30" as="geometry" />
        </mxCell>
        <mxCell id="aR0nrnqsbivXCveqFRS2-51" value="测试环境：172.16.99.2" style="rounded=0;whiteSpace=wrap;html=1;fillColor=#b0e3e6;strokeColor=#0e8088;" parent="1" vertex="1">
          <mxGeometry x="97.5" y="525" width="180" height="60" as="geometry" />
        </mxCell>
        <mxCell id="aR0nrnqsbivXCveqFRS2-58" value="&lt;h1 style=&quot;font-size: 21px;&quot;&gt;原上线流程（示例）&lt;/h1&gt;&lt;p style=&quot;font-size: 21px;&quot;&gt;一 . 开发在指定空间中，指定环境创建上线单，自定义版本等。&lt;/p&gt;&lt;p style=&quot;font-size: 21px;&quot;&gt;二 . 点击上线，开始&amp;nbsp; deploy前置任务 ---&amp;gt; deploy ---&amp;gt; deploy后置任务 ---&amp;gt; release 前置任务 ---&amp;gt; release ---&amp;gt; release 后置任务（示例http://deploy.ops.sherpa.com.cn/%E7%99%BE%E8%83%9C%E7%8E%AF%E5%A2%83/task/deploy/12813）&lt;/p&gt;&lt;p style=&quot;font-size: 21px;&quot;&gt;1. deploy 前置任务：&lt;/p&gt;&lt;p style=&quot;font-size: 21px;&quot;&gt;2. deploy：&lt;/p&gt;cp -rf /data/ops/walle/codebase/261 261_12813_20230404_123354&lt;br&gt;&lt;p style=&quot;font-size: 21px;&quot;&gt;3. deploy后置任务：&lt;/p&gt;tar zcf /data/ops/walle/codebase/261_12813_20230404_123354.tgz --exclude=.git 261_12813_20230404_123354/&lt;p style=&quot;font-size: 21px;&quot;&gt;4. release 前置任务&lt;/p&gt;&lt;p&gt;/data/ops/new_deploy/mkdir.sh ${WEBROOT}&lt;/p&gt;&lt;p&gt;/bin/cp /data/ops/new_deploy/code_base/${VERSION}/online.env /data/ops/new_deploy/code_base/${VERSION}/.env&lt;/p&gt;&lt;p style=&quot;font-size: 21px;&quot;&gt;5. release&lt;/p&gt;&lt;p style=&quot;font-size: 21px;&quot;&gt;6. release 后置任务&lt;/p&gt;&lt;p style=&quot;&quot;&gt;/data/ops/new_deploy/d.sh -e &quot;php7-yumc&quot; -p ${PROJECT_NAME} -v ${VERSION}&lt;br&gt;&lt;/p&gt;" style="text;html=1;strokeColor=none;fillColor=none;spacing=5;spacingTop=-20;whiteSpace=wrap;overflow=hidden;rounded=0;fontSize=21;" parent="1" vertex="1">
          <mxGeometry x="-140" y="970" width="929.75" height="870" as="geometry" />
        </mxCell>
      </root>
    </mxGraphModel>
  </diagram>
</mxfile>
